{
  "version": "",
  "modules": [
    {
      "plugin": "Qwelk",
      "model": "Indra",
      "pos": [
        750.0,
        0.0
      ],
      "params": [
        0.0
      ]
    },
    {
      "plugin": "Fundamental",
      "model": "8vert",
      "pos": [
        0.0,
        380.0
      ],
      "params": [
        1.0,
        1.0,
        -0.0029999958351254463,
        1.0,
        0.51600003242492676,
        0.70200002193450928,
        0.45900005102157593,
        0.0
      ]
    },
    {
      "plugin": "Fundamental",
      "model": "Unity",
      "pos": [
        585.0,
        380.0
      ],
      "params": [
        0.0,
        1.0
      ],
      "data": {
        "merge": true
      }
    },
    {
      "plugin": "Fundamental",
      "model": "Scope",
      "pos": [
        675.0,
        380.0
      ],
      "params": [
        1.0,
        0.0,
        0.0,
        0.0,
        -14.0,
        0.0,
        0.0,
        0.0
      ],
      "data": {
        "lissajous": 0,
        "external": 0
      }
    },
    {
      "plugin": "Core",
      "model": "AudioInterface",
      "pos": [
        675.0,
        760.0
      ],
      "params": [],
      "data": {
        "driver": 8,
        "device": 0,
        "sampleRate": 44100.0,
        "blockSize": 512
      }
    },
    {
      "plugin": "Fundamental",
      "model": "VCA",
      "pos": [
        585.0,
        760.0
      ],
      "params": [
        0.5,
        0.5
      ]
    },
    {
      "plugin": "Fundamental",
      "model": "Scope",
      "pos": [
        330.0,
        380.0
      ],
      "params": [
        0.0,
        0.0,
        0.0,
        0.0,
        -14.0,
        0.0,
        0.0,
        0.0
      ],
      "data": {
        "lissajous": 0,
        "external": 0
      }
    },
    {
      "plugin": "Qwelk",
      "model": "Automaton",
      "pos": [
        180.0,
        0.0
      ],
      "params": [
        0.0,
        0.0,
        0.0,
        0.0,
        0.0,
        0.0,
        0.0,
        0.0,
        0.0,
        0.0,
        0.0,
        0.0,
        0.0,
        0.0,
        0.0,
        0.0,
        0.0,
        0.0
      ],
      "data": {
        "scan": 1,
        "states": [
          1,
          1,
          0,
          0,
          1,
          1,
          1,
          1,
          1,
          0,
          0,
          0,
          0,
          1,
          0,
          0
        ]
      }
    },
    {
      "plugin": "Fundamental",
      "model": "LFO2",
      "pos": [
        0.0,
        0.0
      ],
      "params": [
        1.0,
        1.0,
        0.44900006055831909,
        3.0,
        0.5
      ]
    },
    {
      "plugin": "Fundamental",
      "model": "LFO2",
      "pos": [
        300.0,
        0.0
      ],
      "params": [
        1.0,
        1.0,
        0.4909999668598175,
        0.0,
        0.5
      ]
    },
    {
      "plugin": "Fundamental",
      "model": "LFO2",
      "pos": [
        390.0,
        0.0
      ],
      "params": [
        1.0,
        1.0,
        -2.2390000820159912,
        0.0,
        0.5
      ]
    },
    {
      "plugin": "Fundamental",
      "model": "LFO2",
      "pos": [
        480.0,
        0.0
      ],
      "params": [
        1.0,
        1.0,
        -1.4410001039505005,
        0.0,
        0.5
      ]
    },
    {
      "plugin": "Fundamental",
      "model": "LFO2",
      "pos": [
        90.0,
        0.0
      ],
      "params": [
        0.0,
        1.0,
        -1.2519999742507935,
        0.0,
        0.5
      ]
    },
    {
      "plugin": "Fundamental",
      "model": "LFO2",
      "pos": [
        570.0,
        0.0
      ],
      "params": [
        1.0,
        1.0,
        0.0080000162124633789,
        0.0,
        0.5
      ]
    },
    {
      "plugin": "Fundamental",
      "model": "LFO2",
      "pos": [
        990.0,
        0.0
      ],
      "params": [
        1.0,
        1.0,
        -1.6299993991851807,
        0.0,
        0.5
      ]
    },
    {
      "plugin": "Fundamental",
      "model": "LFO2",
      "pos": [
        660.0,
        0.0
      ],
      "params": [
        1.0,
        1.0,
        -0.1390000581741333,
        0.0,
        0.5
      ]
    }
  ],
  "wires": [
    {
      "outputModuleId": 2,
      "outputId": 2,
      "inputModuleId": 3,
      "inputId": 0
    },
    {
      "outputModuleId": 2,
      "outputId": 2,
      "inputModuleId": 5,
      "inputId": 2
    },
    {
      "outputModuleId": 5,
      "outputId": 0,
      "inputModuleId": 4,
      "inputId": 0
    },
    {
      "outputModuleId": 5,
      "outputId": 0,
      "inputModuleId": 4,
      "inputId": 1
    },
    {
      "outputModuleId": 0,
      "outputId": 0,
      "inputModuleId": 2,
      "inputId": 0
    },
    {
      "outputModuleId": 0,
      "outputId": 1,
      "inputModuleId": 2,
      "inputId": 1
    },
    {
      "outputModuleId": 0,
      "outputId": 2,
      "inputModuleId": 2,
      "inputId": 2
    },
    {
      "outputModuleId": 0,
      "outputId": 3,
      "inputModuleId": 2,
      "inputId": 3
    },
    {
      "outputModuleId": 0,
      "outputId": 0,
      "inputModuleId": 6,
      "inputId": 0
    },
    {
      "outputModuleId": 0,
      "outputId": 1,
      "inputModuleId": 6,
      "inputId": 1
    },
    {
      "outputModuleId": 1,
      "outputId": 0,
      "inputModuleId": 7,
      "inputId": 3
    },
    {
      "outputModuleId": 1,
      "outputId": 0,
      "inputModuleId": 7,
      "inputId": 4
    },
    {
      "outputModuleId": 1,
      "outputId": 0,
      "inputModuleId": 7,
      "inputId": 5
    },
    {
      "outputModuleId": 1,
      "outputId": 0,
      "inputModuleId": 7,
      "inputId": 6
    },
    {
      "outputModuleId": 8,
      "outputId": 0,
      "inputModuleId": 7,
      "inputId": 1
    },
    {
      "outputModuleId": 7,
      "outputId": 8,
      "inputModuleId": 1,
      "inputId": 1
    },
    {
      "outputModuleId": 1,
      "outputId": 1,
      "inputModuleId": 0,
      "inputId": 0
    },
    {
      "outputModuleId": 9,
      "outputId": 0,
      "inputModuleId": 0,
      "inputId": 4
    },
    {
      "outputModuleId": 10,
      "outputId": 0,
      "inputModuleId": 0,
      "inputId": 6
    },
    {
      "outputModuleId": 11,
      "outputId": 0,
      "inputModuleId": 0,
      "inputId": 8
    },
    {
      "outputModuleId": 10,
      "outputId": 0,
      "inputModuleId": 0,
      "inputId": 3
    },
    {
      "outputModuleId": 11,
      "outputId": 0,
      "inputModuleId": 0,
      "inputId": 5
    },
    {
      "outputModuleId": 9,
      "outputId": 0,
      "inputModuleId": 0,
      "inputId": 7
    },
    {
      "outputModuleId": 12,
      "outputId": 0,
      "inputModuleId": 7,
      "inputId": 0
    },
    {
      "outputModuleId": 0,
      "outputId": 4,
      "inputModuleId": 2,
      "inputId": 4
    },
    {
      "outputModuleId": 0,
      "outputId": 5,
      "inputModuleId": 2,
      "inputId": 5
    },
    {
      "outputModuleId": 13,
      "outputId": 0,
      "inputModuleId": 0,
      "inputId": 10
    },
    {
      "outputModuleId": 15,
      "outputId": 0,
      "inputModuleId": 0,
      "inputId": 12
    },
    {
      "outputModuleId": 10,
      "outputId": 0,
      "inputModuleId": 0,
      "inputId": 11
    },
    {
      "outputModuleId": 9,
      "outputId": 0,
      "inputModuleId": 0,
      "inputId": 9
    },
    {
      "outputModuleId": 12,
      "outputId": 0,
      "inputModuleId": 8,
      "inputId": 0
    }
  ]
}