{
  "version": "",
  "modules": [
    {
      "plugin": "Qwelk",
      "model": "Indra",
      "pos": [
        270.0,
        380.0
      ],
      "params": [
        -1.0,
        1.0,
        0.0,
        0.0,
        1.0,
        0.32099997997283936,
        0.43649992346763611,
        0.5415000319480896,
        0.64649993181228638,
        0.71200001239776611,
        0.78150004148483276,
        0.63299989700317383,
        1.0,
        0.27750006318092346,
        0.6179998517036438,
        0.58800005912780762,
        0.5834999680519104,
        0.35099998116493225,
        0.18450005352497101,
        0.84299999475479126,
        1.0,
        0.38850000500679016,
        0.0,
        0.65699982643127441,
        0.52600014209747314,
        0.66900002956390381,
        0.0,
        0.7019999623298645,
        1.0,
        0.0,
        0.0,
        0.0,
        0.49199998378753662,
        0.0
      ]
    },
    {
      "plugin": "Qwelk",
      "model": "Chaos",
      "pos": [
        270.0,
        0.0
      ],
      "params": [
        0.0,
        0.0,
        0.0,
        0.0,
        0.0,
        0.0,
        0.0,
        0.0,
        0.0,
        0.0,
        0.0,
        0.0,
        0.0,
        0.0,
        0.0,
        0.0,
        0.0,
        0.0
      ],
      "data": {
        "scan": 1,
        "states": [
          1,
          0,
          1,
          1,
          0,
          1,
          1,
          1,
          0,
          0,
          0,
          1,
          1,
          0,
          0,
          1
        ]
      }
    },
    {
      "plugin": "Fundamental",
      "model": "Unity",
      "pos": [
        675.0,
        380.0
      ],
      "params": [
        0.0,
        0.0
      ],
      "data": {
        "merge": true
      }
    },
    {
      "plugin": "Core",
      "model": "AudioInterface",
      "pos": [
        675.0,
        0.0
      ],
      "params": [],
      "data": {
        "driver": 8,
        "device": 0,
        "sampleRate": 44100.0,
        "blockSize": 512
      }
    },
    {
      "plugin": "Fundamental",
      "model": "VCA",
      "pos": [
        765.0,
        380.0
      ],
      "params": [
        0.20000003278255463,
        0.5
      ]
    },
    {
      "plugin": "Qwelk",
      "model": "Scaler",
      "pos": [
        240.0,
        0.0
      ],
      "params": []
    },
    {
      "plugin": "Fundamental",
      "model": "LFO2",
      "pos": [
        90.0,
        0.0
      ],
      "params": [
        0.0,
        1.0,
        0.092000044882297516,
        0.0,
        0.5
      ]
    },
    {
      "plugin": "Fundamental",
      "model": "LFO2",
      "pos": [
        0.0,
        0.0
      ],
      "params": [
        0.0,
        0.0,
        -1.6089997291564941,
        3.0,
        0.5
      ]
    },
    {
      "plugin": "Fundamental",
      "model": "VCO2",
      "pos": [
        180.0,
        380.0
      ],
      "params": [
        1.0,
        1.0,
        0.0,
        0.0,
        0.0
      ]
    },
    {
      "plugin": "Fundamental",
      "model": "LFO2",
      "pos": [
        90.0,
        380.0
      ],
      "params": [
        1.0,
        1.0,
        0.54000115394592285,
        3.0,
        0.5
      ]
    },
    {
      "plugin": "Fundamental",
      "model": "8vert",
      "pos": [
        510.0,
        380.0
      ],
      "params": [
        1.0,
        1.0,
        1.0,
        0.91500020027160645,
        1.0,
        1.0,
        1.0,
        1.0
      ]
    },
    {
      "plugin": "Qwelk",
      "model": "Automaton",
      "pos": [
        510.0,
        0.0
      ],
      "params": [
        0.0,
        0.0,
        0.0,
        0.0,
        0.0,
        0.0,
        0.0,
        0.0,
        0.0,
        0.0,
        0.0,
        0.0,
        0.0,
        0.0,
        0.0,
        0.0,
        0.0,
        0.0
      ],
      "data": {
        "scan": 1,
        "states": [
          0,
          0,
          1,
          0,
          0,
          1,
          0,
          0,
          1,
          0,
          1,
          1,
          0,
          1,
          1,
          1
        ]
      }
    },
    {
      "plugin": "Fundamental",
      "model": "LFO2",
      "pos": [
        0.0,
        380.0
      ],
      "params": [
        0.0,
        0.0,
        0.8479999303817749,
        0.0,
        0.5
      ]
    }
  ],
  "wires": [
    {
      "outputModuleId": 4,
      "outputId": 0,
      "inputModuleId": 3,
      "inputId": 0
    },
    {
      "outputModuleId": 4,
      "outputId": 0,
      "inputModuleId": 3,
      "inputId": 1
    },
    {
      "outputModuleId": 5,
      "outputId": 2,
      "inputModuleId": 5,
      "inputId": 2
    },
    {
      "outputModuleId": 5,
      "outputId": 3,
      "inputModuleId": 1,
      "inputId": 4
    },
    {
      "outputModuleId": 5,
      "outputId": 3,
      "inputModuleId": 1,
      "inputId": 6
    },
    {
      "outputModuleId": 5,
      "outputId": 3,
      "inputModuleId": 1,
      "inputId": 8
    },
    {
      "outputModuleId": 5,
      "outputId": 3,
      "inputModuleId": 1,
      "inputId": 10
    },
    {
      "outputModuleId": 2,
      "outputId": 2,
      "inputModuleId": 4,
      "inputId": 2
    },
    {
      "outputModuleId": 9,
      "outputId": 0,
      "inputModuleId": 1,
      "inputId": 1
    },
    {
      "outputModuleId": 7,
      "outputId": 0,
      "inputModuleId": 1,
      "inputId": 0
    },
    {
      "outputModuleId": 4,
      "outputId": 1,
      "inputModuleId": 0,
      "inputId": 0
    },
    {
      "outputModuleId": 1,
      "outputId": 35,
      "inputModuleId": 0,
      "inputId": 1
    },
    {
      "outputModuleId": 1,
      "outputId": 30,
      "inputModuleId": 0,
      "inputId": 5
    },
    {
      "outputModuleId": 1,
      "outputId": 31,
      "inputModuleId": 0,
      "inputId": 7
    },
    {
      "outputModuleId": 1,
      "outputId": 25,
      "inputModuleId": 0,
      "inputId": 9
    },
    {
      "outputModuleId": 1,
      "outputId": 26,
      "inputModuleId": 0,
      "inputId": 11
    },
    {
      "outputModuleId": 1,
      "outputId": 20,
      "inputModuleId": 0,
      "inputId": 13
    },
    {
      "outputModuleId": 1,
      "outputId": 21,
      "inputModuleId": 0,
      "inputId": 15
    },
    {
      "outputModuleId": 1,
      "outputId": 40,
      "inputModuleId": 0,
      "inputId": 4
    },
    {
      "outputModuleId": 1,
      "outputId": 42,
      "inputModuleId": 0,
      "inputId": 6
    },
    {
      "outputModuleId": 1,
      "outputId": 44,
      "inputModuleId": 0,
      "inputId": 8
    },
    {
      "outputModuleId": 1,
      "outputId": 46,
      "inputModuleId": 0,
      "inputId": 10
    },
    {
      "outputModuleId": 1,
      "outputId": 48,
      "inputModuleId": 0,
      "inputId": 12
    },
    {
      "outputModuleId": 1,
      "outputId": 49,
      "inputModuleId": 0,
      "inputId": 16
    },
    {
      "outputModuleId": 1,
      "outputId": 47,
      "inputModuleId": 0,
      "inputId": 14
    },
    {
      "outputModuleId": 6,
      "outputId": 0,
      "inputModuleId": 7,
      "inputId": 0
    },
    {
      "outputModuleId": 0,
      "outputId": 0,
      "inputModuleId": 10,
      "inputId": 0
    },
    {
      "outputModuleId": 0,
      "outputId": 1,
      "inputModuleId": 10,
      "inputId": 1
    },
    {
      "outputModuleId": 0,
      "outputId": 2,
      "inputModuleId": 10,
      "inputId": 2
    },
    {
      "outputModuleId": 0,
      "outputId": 3,
      "inputModuleId": 10,
      "inputId": 3
    },
    {
      "outputModuleId": 0,
      "outputId": 4,
      "inputModuleId": 10,
      "inputId": 4
    },
    {
      "outputModuleId": 0,
      "outputId": 5,
      "inputModuleId": 10,
      "inputId": 5
    },
    {
      "outputModuleId": 0,
      "outputId": 6,
      "inputModuleId": 10,
      "inputId": 6
    },
    {
      "outputModuleId": 0,
      "outputId": 7,
      "inputModuleId": 10,
      "inputId": 7
    },
    {
      "outputModuleId": 10,
      "outputId": 0,
      "inputModuleId": 2,
      "inputId": 0
    },
    {
      "outputModuleId": 10,
      "outputId": 1,
      "inputModuleId": 2,
      "inputId": 1
    },
    {
      "outputModuleId": 10,
      "outputId": 2,
      "inputModuleId": 2,
      "inputId": 2
    },
    {
      "outputModuleId": 10,
      "outputId": 3,
      "inputModuleId": 2,
      "inputId": 3
    },
    {
      "outputModuleId": 10,
      "outputId": 4,
      "inputModuleId": 2,
      "inputId": 4
    },
    {
      "outputModuleId": 10,
      "outputId": 5,
      "inputModuleId": 2,
      "inputId": 5
    },
    {
      "outputModuleId": 10,
      "outputId": 6,
      "inputModuleId": 2,
      "inputId": 6
    },
    {
      "outputModuleId": 10,
      "outputId": 7,
      "inputModuleId": 2,
      "inputId": 7
    },
    {
      "outputModuleId": 5,
      "outputId": 3,
      "inputModuleId": 11,
      "inputId": 3
    },
    {
      "outputModuleId": 5,
      "outputId": 3,
      "inputModuleId": 11,
      "inputId": 4
    },
    {
      "outputModuleId": 5,
      "outputId": 3,
      "inputModuleId": 11,
      "inputId": 5
    },
    {
      "outputModuleId": 5,
      "outputId": 3,
      "inputModuleId": 11,
      "inputId": 6
    },
    {
      "outputModuleId": 6,
      "outputId": 0,
      "inputModuleId": 11,
      "inputId": 1
    },
    {
      "outputModuleId": 7,
      "outputId": 0,
      "inputModuleId": 11,
      "inputId": 0
    },
    {
      "outputModuleId": 12,
      "outputId": 0,
      "inputModuleId": 9,
      "inputId": 0
    },
    {
      "outputModuleId": 6,
      "outputId": 0,
      "inputModuleId": 12,
      "inputId": 0
    },
    {
      "outputModuleId": 1,
      "outputId": 41,
      "inputModuleId": 4,
      "inputId": 4
    },
    {
      "outputModuleId": 11,
      "outputId": 8,
      "inputModuleId": 4,
      "inputId": 5
    },
    {
      "outputModuleId": 12,
      "outputId": 0,
      "inputModuleId": 6,
      "inputId": 0
    },
    {
      "outputModuleId": 9,
      "outputId": 0,
      "inputModuleId": 0,
      "inputId": 20
    },
    {
      "outputModuleId": 12,
      "outputId": 0,
      "inputModuleId": 0,
      "inputId": 23
    },
    {
      "outputModuleId": 1,
      "outputId": 45,
      "inputModuleId": 0,
      "inputId": 18
    },
    {
      "outputModuleId": 1,
      "outputId": 17,
      "inputModuleId": 0,
      "inputId": 17
    }
  ]
}