{
  "version": "",
  "modules": [
    {
      "plugin": "Core",
      "model": "AudioInterface",
      "pos": [
        705.0,
        0.0
      ],
      "params": [],
      "data": {
        "driver": 8,
        "device": -1,
        "sampleRate": 44100.0,
        "blockSize": 256
      }
    },
    {
      "plugin": "Fundamental",
      "model": "Scope",
      "pos": [
        690.0,
        380.0
      ],
      "params": [
        0.0,
        0.0,
        0.0,
        0.0,
        -14.0,
        0.0,
        0.0,
        0.0
      ],
      "data": {
        "lissajous": 0,
        "external": 0
      }
    },
    {
      "plugin": "Fundamental",
      "model": "VCA",
      "pos": [
        615.0,
        0.0
      ],
      "params": [
        0.5,
        0.5
      ]
    },
    {
      "plugin": "Fundamental",
      "model": "Unity",
      "pos": [
        525.0,
        0.0
      ],
      "params": [
        0.0,
        0.0
      ],
      "data": {
        "merge": true
      }
    }
  ],
  "wires": [
    {
      "outputModuleId": 2,
      "outputId": 1,
      "inputModuleId": 0,
      "inputId": 0
    },
    {
      "outputModuleId": 2,
      "outputId": 1,
      "inputModuleId": 0,
      "inputId": 1
    },
    {
      "outputModuleId": 3,
      "outputId": 2,
      "inputModuleId": 2,
      "inputId": 5
    }
  ]
}