{
  "version": "",
  "modules": [
    {
      "plugin": "Qwelk",
      "model": "NEWS",
      "pos": [
        435.0,
        0.0
      ],
      "params": [
        1.0,
        0.0,
        1.0,
        0.0,
        0.0
      ]
    },
    {
      "plugin": "Fundamental",
      "model": "LFO2",
      "pos": [
        315.0,
        0.0
      ],
      "params": [
        0.0,
        1.0,
        -1.0,
        1.2599999904632568,
        0.5
      ]
    },
    {
      "plugin": "Qwelk",
      "model": "Indra",
      "pos": [
        615.0,
        0.0
      ],
      "params": [
        -30.618000030517578,
        0.0,
        1.0,
        1.0,
        0.025000056251883507,
        0.0,
        0.0,
        0.69600003957748413,
        0.11200001835823059,
        0.0,
        0.0,
        0.66149997711181641,
        0.074499949812889099,
        0.0,
        0.0,
        0.66149997711181641,
        0.1470000147819519,
        0.0,
        0.0,
        0.60750007629394531,
        0.09749998152256012,
        0.0,
        0.0,
        0.65999996662139893,
        0.061499979346990585,
        0.0,
        0.0,
        0.67649996280670166,
        0.052500009536743164,
        0.0,
        0.0,
        0.57750004529953003,
        0.074999995529651642,
        0.0,
        0.0,
        0.65850019454956055
      ]
    },
    {
      "plugin": "Fundamental",
      "model": "VCA",
      "pos": [
        900.0,
        0.0
      ],
      "params": [
        0.5,
        0.5
      ]
    },
    {
      "plugin": "Core",
      "model": "AudioInterface",
      "pos": [
        990.0,
        0.0
      ],
      "params": [],
      "data": {
        "driver": 8,
        "device": 0,
        "sampleRate": 44100.0,
        "blockSize": 512
      }
    }
  ],
  "wires": [
    {
      "outputModuleId": 1,
      "outputId": 0,
      "inputModuleId": 0,
      "inputId": 0
    },
    {
      "outputModuleId": 0,
      "outputId": 31,
      "inputModuleId": 2,
      "inputId": 6
    },
    {
      "outputModuleId": 2,
      "outputId": 0,
      "inputModuleId": 3,
      "inputId": 5
    },
    {
      "outputModuleId": 3,
      "outputId": 1,
      "inputModuleId": 4,
      "inputId": 1
    },
    {
      "outputModuleId": 3,
      "outputId": 1,
      "inputModuleId": 4,
      "inputId": 0
    },
    {
      "outputModuleId": 0,
      "outputId": 15,
      "inputModuleId": 2,
      "inputId": 9
    },
    {
      "outputModuleId": 0,
      "outputId": 14,
      "inputModuleId": 2,
      "inputId": 12
    },
    {
      "outputModuleId": 0,
      "outputId": 26,
      "inputModuleId": 2,
      "inputId": 15
    },
    {
      "outputModuleId": 0,
      "outputId": 2,
      "inputModuleId": 2,
      "inputId": 18
    },
    {
      "outputModuleId": 0,
      "outputId": 6,
      "inputModuleId": 2,
      "inputId": 21
    },
    {
      "outputModuleId": 0,
      "outputId": 19,
      "inputModuleId": 2,
      "inputId": 24
    },
    {
      "outputModuleId": 0,
      "outputId": 11,
      "inputModuleId": 2,
      "inputId": 27
    }
  ]
}